The Road Warrior (1981)

Director: George Miller

Mad Max 2 (also known as The Road Warrior in the U.S., and Mad Max 2: The Road Warrior) is a 1981 Australian post-apocalyptic action film directed by George Miller. The film is the second installment in the Mad Max film series, with Mel Gibson starring as Max Rockatansky. The film's tale of a community of settlers moved to defend themselves against a roving band of marauders follows an archetypal "Western" frontier movie motif, as does Max's role as a hardened man who rediscovers his humanity when he decides to help the settlers.

Mad Max 2 was released on 24 December 1981, and was critically acclaimed. Observers praised the visuals and Gibson's role. Noteworthy elements of the film also include cinematographer Dean Semler's widescreen photography of Australia's vast desert landscapes; the sparing use of dialogue throughout the film; costume designer Norma Moriceau's punk mohawked, leather bondage gear-wearing bikers; and its fast-paced, tightly edited, and violent battle and chase scenes. The film's comic-book post-apocalyptic/punk style popularized the genre in film and fiction writing. It was also a box office success and received several nominations at the Saturn Award ceremony. Eventually, Mad Max 2 developed into a cult film: fan clubs and "road warrior"-themed activities still occurred into the 2000s. The film was followed by Mad Max Beyond Thunderdome in 1985.

Media Info:
General
Complete name                    : J:\Seeding\The Road Warrior (1981)[DVDRip][big_dad_e™]\The Road Warrior (1981)[DVDRip][big_dad_e™].AVI
Format                           : AVI
Format/Info                      : Audio Video Interleave
File size                        : 1.21 GiB
Duration                         : 1h 35mn
Overall bit rate                 : 1 824 Kbps

Video
ID                               : 0
Format                           : MPEG-4 Visual
Format profile                   : Simple@L3
Format settings, BVOP            : No
Format settings, QPel            : No
Format settings, GMC             : No warppoints
Format settings, Matrix          : Default (H.263)
Codec ID                         : XVID
Codec ID/Hint                    : XviD
Duration                         : 1h 35mn
Bit rate                         : 1 491 Kbps
Width                            : 716 pixels
Height                           : 346 pixels
Display aspect ratio             : 2.453
Frame rate                       : 23.976 fps
Color space                      : YUV
Chroma subsampling               : 4:2:0
Bit depth                        : 8 bits
Scan type                        : Progressive
Bits/(Pixel*Frame)               : 0.251
Stream size                      : 1 016 MiB (82%)
Writing library                  : XviD 

Audio
ID                               : 1
Format                           : MPEG Audio
Format version                   : Version 1
Format profile                   : Layer 3
Mode                             : Joint stereo
Codec ID                         : 55
Codec ID/Hint                    : MP3
Duration                         : 1h 35mn
Bit rate mode                    : Constant
Bit rate                         : 320 Kbps
Channel(s)                       : 2 channels
Sampling rate                    : 48.0 KHz
Stream size                      : 218 MiB (18%)
Alignment                        : Split accross interleaves
Interleave, duration             : 24 ms (0.58 video frame)
Interleave, preload duration     : 71 ms
Writing library                  : LAME3.98

File Scan:
Malwarebytes' Anti-Malware 1.50.1.1100
www.malwarebytes.org

Database version: 5947
3/3/2011 3:35:52 PM
mbam-log-2011-03-03 (15-35-52).txt

Scan type: Quick scan
Objects scanned: 5
Time elapsed: 17 second(s)

Memory Processes Infected: 0
Memory Modules Infected: 0
Registry Keys Infected: 0
Registry Values Infected: 0
Registry Data Items Infected: 0
Folders Infected: 0
Files Infected: 0

Memory Processes Infected:
(No malicious items detected)

Memory Modules Infected:
(No malicious items detected)

Registry Keys Infected:
(No malicious items detected)

Registry Values Infected:
(No malicious items detected)

Registry Data Items Infected:
(No malicious items detected)

Folders Infected:
(No malicious items detected)

Files Infected:
(No malicious items detected)

When using TPB please read these important notes:
  
01- Anti-malware apps may warn about keygens, patches, cracks, etc., because of 
    their capabilities, (generating codes, etc.). Sometimes they're added to 
    the virus/spyware database and will be detected as malware. If you don't trust
    the keygens, patches, cracks, etc., don't use them. 
    
02- Before running .exe-files, keygens, patches, cracks, etc., always check first 
    if they can be unpacked. Often some third party added a virus to the 
    original file, repacked it and uploaded it again.

03- Letting anti-malware apps send scan results to their companies can cause
    keygens, patches, cracks, etc., to be added to their virus-database.

04- Firewalls which are set to automatically determine connections will allow 
    apps & malware!. Avoid this by manually configuring your firewall.

05- Usually (new) torrents with many downloads and seeders in a brief period is
    suspicious! Torrents with the Skull & Crossbones icon are trusted.

06- Some people use multiple accounts and post fake comments 
    and/or files trying to spread confusion. They seldom seriously
    comment or have any torrents, or a just a few to look passable.

07- Clicking on unknown links can cause malware to be installed on your machine.
  
08- In general often there are more fake and negative comments than reliable and
    positive comments.

09- In some countries uploading/downloading copyright protected material is 
    forbidden, but showing some appreciation to reliable up-loaders is not.

10- Posting fake and negative comments or fake/infected uploads on TPB can result
    in getting banned from TPB!

Requests?  Find me on SuprBay. http://forum.suprbay.org
 

For reporting bad or suspicious torrents:  
http://forum.suprbay.org/forumdisplay.php?fid=29

For more of my torrents: 
https://thepiratebay.org/user/big_dad_e/  (Secured)

All torrents scanned with:
Norton Anti-virus
Malwarebytes' Anti-malware
 
http://www.pirate-party.us/

ALWAYS SEED & THANKS SEEDERS!